<?xml version="1.0" encoding="utf-8"?>
<!-- Generated by Mocodo 4.3.2 -->
<svg width="500" height="776" viewBox="0 0 500 776" xmlns="http://www.w3.org/2000/svg">
<rect x="0" y="0" width="500" height="776" fill="#ffffbf" stroke="none" stroke-width="0"/>

<!-- Association POSSEDE -->
<g>
	<line x1="189" y1="77" x2="189" y2="195" stroke="#f46d43" stroke-width="2"/>
	<line x1="189" y1="287" x2="189" y2="195" stroke="#f46d43" stroke-width="2"/>
	<g>
		<path d="M212 170 a14 14 90 0 1 14 14 V195 h-74 V184 a14 14 90 0 1 14 -14" fill="#fdae61" stroke="#fdae61" stroke-width="0"/>
		<path d="M226 195 v11 a14 14 90 0 1 -14 14 H166 a14 14 90 0 1 -14 -14 V195 H74" fill="#fee08b" stroke="#fee08b" stroke-width="0"/>
		<rect x="152" y="170" width="74" height="50" fill="none" rx="14" stroke="#f46d43" stroke-width="2"/>
		<line x1="152" y1="195" x2="226" y2="195" stroke="#f46d43" stroke-width="1"/>
		<text x="160" y="187.75" fill="#000000" font-family="Verdana" font-size="12">POSSEDE</text>
	</g>
	<text x="194" y="162" fill="#1a9850" font-family="Verdana" font-size="12">1,N</text>
	<text x="194" y="237" fill="#1a9850" font-family="Verdana" font-size="12">1,1</text>
</g>

<!-- Association AJOUTE -->
<g>
	<line x1="189" y1="287" x2="56" y2="287" stroke="#f46d43" stroke-width="2"/>
	<line x1="56" y1="488" x2="56" y2="287" stroke="#f46d43" stroke-width="2"/>
	<line x1="189" y1="488" x2="56" y2="287" stroke="#f46d43" stroke-width="2"/>
	<g>
		<path d="M73 262 a14 14 90 0 1 14 14 V287 h-62 V276 a14 14 90 0 1 14 -14" fill="#fdae61" stroke="#fdae61" stroke-width="0"/>
		<path d="M87 287 v11 a14 14 90 0 1 -14 14 H39 a14 14 90 0 1 -14 -14 V287 H62" fill="#fee08b" stroke="#fee08b" stroke-width="0"/>
		<rect x="25" y="262" width="62" height="50" fill="none" rx="14" stroke="#f46d43" stroke-width="2"/>
		<line x1="25" y1="287" x2="87" y2="287" stroke="#f46d43" stroke-width="1"/>
		<text x="32" y="279.75" fill="#000000" font-family="Verdana" font-size="12">AJOUTE</text>
	</g>
	<text x="118" y="304" fill="#1a9850" font-family="Verdana" font-size="12">0,N</text>
	<text x="61" y="446" fill="#1a9850" font-family="Verdana" font-size="12">0,N</text>
	<text x="149.88" y="421" fill="#1a9850" font-family="Verdana" font-size="12">0,N</text>
</g>

<!-- Association NOTE -->
<g>
	<line x1="189" y1="287" x2="311" y2="287" stroke="#f46d43" stroke-width="2"/>
	<line x1="189" y1="488" x2="311" y2="287" stroke="#f46d43" stroke-width="2"/>
	<g>
		<path d="M321 262 a14 14 90 0 1 14 14 V287 h-48 V276 a14 14 90 0 1 14 -14" fill="#fdae61" stroke="#fdae61" stroke-width="0"/>
		<path d="M335 287 v11 a14 14 90 0 1 -14 14 H301 a14 14 90 0 1 -14 -14 V287 H48" fill="#fee08b" stroke="#fee08b" stroke-width="0"/>
		<rect x="287" y="262" width="48" height="50" fill="none" rx="14" stroke="#f46d43" stroke-width="2"/>
		<line x1="287" y1="287" x2="335" y2="287" stroke="#f46d43" stroke-width="1"/>
		<text x="294" y="279.75" fill="#000000" font-family="Verdana" font-size="12">NOTE</text>
		<text x="294" y="304.8" fill="#000000" font-family="Verdana" font-size="12">note</text>
	</g>
	<text x="238" y="304" fill="#1a9850" font-family="Verdana" font-size="12">0,N</text>
	<text x="202.51" y="421" fill="#1a9850" font-family="Verdana" font-size="12">0,N</text>
</g>

<!-- Association REGARDE -->
<g>
	<line x1="189" y1="287" x2="189" y2="379" stroke="#f46d43" stroke-width="2"/>
	<line x1="189" y1="488" x2="189" y2="379" stroke="#f46d43" stroke-width="2"/>
	<g>
		<path d="M215 354 a14 14 90 0 1 14 14 V379 h-80 V368 a14 14 90 0 1 14 -14" fill="#fdae61" stroke="#fdae61" stroke-width="0"/>
		<path d="M229 379 v11 a14 14 90 0 1 -14 14 H163 a14 14 90 0 1 -14 -14 V379 H80" fill="#fee08b" stroke="#fee08b" stroke-width="0"/>
		<rect x="149" y="354" width="80" height="50" fill="none" rx="14" stroke="#f46d43" stroke-width="2"/>
		<line x1="149" y1="379" x2="229" y2="379" stroke="#f46d43" stroke-width="1"/>
		<text x="159" y="371.75" fill="#000000" font-family="Verdana" font-size="12">REGARDE</text>
		<text x="156" y="396.8" fill="#000000" font-family="Verdana" font-size="12">timestamp</text>
	</g>
	<text x="194" y="346" fill="#1a9850" font-family="Verdana" font-size="12">0,N</text>
	<text x="194" y="421" fill="#1a9850" font-family="Verdana" font-size="12">0,N</text>
</g>

<!-- Association REALISE -->
<g>
	<line x1="189" y1="488" x2="311" y2="488" stroke="#f46d43" stroke-width="2"/>
	<line x1="434" y1="488" x2="311" y2="488" stroke="#f46d43" stroke-width="2"/>
	<g>
		<path d="M331 463 a14 14 90 0 1 14 14 V488 h-68 V477 a14 14 90 0 1 14 -14" fill="#fdae61" stroke="#fdae61" stroke-width="0"/>
		<path d="M345 488 v11 a14 14 90 0 1 -14 14 H291 a14 14 90 0 1 -14 -14 V488 H68" fill="#fee08b" stroke="#fee08b" stroke-width="0"/>
		<rect x="277" y="463" width="68" height="50" fill="none" rx="14" stroke="#f46d43" stroke-width="2"/>
		<line x1="277" y1="488" x2="345" y2="488" stroke="#f46d43" stroke-width="1"/>
		<text x="285" y="480.75" fill="#000000" font-family="Verdana" font-size="12">REALISE</text>
	</g>
	<text x="250" y="505" fill="#1a9850" font-family="Verdana" font-size="12">1,N</text>
	<text x="350" y="480" fill="#1a9850" font-family="Verdana" font-size="12">0,N</text>
</g>

<!-- Association QUALIFIE -->
<g>
	<line x1="56" y1="716" x2="56" y2="606" stroke="#f46d43" stroke-width="2"/>
	<line x1="189" y1="488" x2="56" y2="606" stroke="#f46d43" stroke-width="2"/>
	<g>
		<path d="M79 581 a14 14 90 0 1 14 14 V606 h-74 V595 a14 14 90 0 1 14 -14" fill="#fdae61" stroke="#fdae61" stroke-width="0"/>
		<path d="M93 606 v11 a14 14 90 0 1 -14 14 H33 a14 14 90 0 1 -14 -14 V606 H74" fill="#fee08b" stroke="#fee08b" stroke-width="0"/>
		<rect x="19" y="581" width="74" height="50" fill="none" rx="14" stroke="#f46d43" stroke-width="2"/>
		<line x1="19" y1="606" x2="93" y2="606" stroke="#f46d43" stroke-width="1"/>
		<text x="27" y="598.75" fill="#000000" font-family="Verdana" font-size="12">QUALIFIE</text>
	</g>
	<text x="61" y="674" fill="#1a9850" font-family="Verdana" font-size="12">0,N</text>
	<text x="106" y="536.16" fill="#1a9850" font-family="Verdana" font-size="12">1,N</text>
</g>

<!-- Association APPARTIENT -->
<g>
	<line x1="189" y1="488" x2="189" y2="606" stroke="#f46d43" stroke-width="2"/>
	<line x1="189" y1="716" x2="189" y2="606" stroke="#f46d43" stroke-width="2"/>
	<g>
		<path d="M233 572 a14 14 90 0 1 14 14 V597 h-116 V586 a14 14 90 0 1 14 -14" fill="#fdae61" stroke="#fdae61" stroke-width="0"/>
		<path d="M247 597 v29 a14 14 90 0 1 -14 14 H145 a14 14 90 0 1 -14 -14 V597 H116" fill="#fee08b" stroke="#fee08b" stroke-width="0"/>
		<rect x="131" y="572" width="116" height="68" fill="none" rx="14" stroke="#f46d43" stroke-width="2"/>
		<line x1="131" y1="597" x2="247" y2="597" stroke="#f46d43" stroke-width="1"/>
		<text x="151" y="589.75" fill="#000000" font-family="Verdana" font-size="12">APPARTIENT</text>
		<text x="138" y="614.8" fill="#000000" font-family="Verdana" font-size="12">saison</text>
		<text x="138" y="631.8" fill="#000000" font-family="Verdana" font-size="12">numero_episode</text>
	</g>
	<text x="194" y="564" fill="#1a9850" font-family="Verdana" font-size="12">0,1</text>
	<text x="194" y="674" fill="#1a9850" font-family="Verdana" font-size="12">1,N</text>
</g>

<!-- Association JOUE -->
<g>
	<line x1="311" y1="716" x2="311" y2="606" stroke="#f46d43" stroke-width="2"/>
	<line x1="189" y1="488" x2="311" y2="606" stroke="#f46d43" stroke-width="2"/>
	<line x1="434" y1="488" x2="311" y2="606" stroke="#f46d43" stroke-width="2"/>
	<g>
		<path d="M320 581 a14 14 90 0 1 14 14 V606 h-46 V595 a14 14 90 0 1 14 -14" fill="#fdae61" stroke="#fdae61" stroke-width="0"/>
		<path d="M334 606 v11 a14 14 90 0 1 -14 14 H302 a14 14 90 0 1 -14 -14 V606 H46" fill="#fee08b" stroke="#fee08b" stroke-width="0"/>
		<rect x="288" y="581" width="46" height="50" fill="none" rx="14" stroke="#f46d43" stroke-width="2"/>
		<line x1="288" y1="606" x2="334" y2="606" stroke="#f46d43" stroke-width="1"/>
		<text x="295" y="598.75" fill="#000000" font-family="Verdana" font-size="12">JOUE</text>
	</g>
	<text x="316" y="657" fill="#1a9850" font-family="Verdana" font-size="12">1,N</text>
	<text x="250" y="541.07" fill="#1a9850" font-family="Verdana" font-size="12">0,N</text>
	<text x="388.36" y="547" fill="#1a9850" font-family="Verdana" font-size="12">0,N</text>
</g>

<!-- Entity CLIENT -->
<g>
	<g>
		<rect x="150" y="9" width="78" height="25" fill="#a6d96a" stroke="none" stroke-width="0" opacity="1"/>
		<rect x="150" y="34" width="78" height="111" fill="#d9ef8b" stroke="none" stroke-width="0" opacity="1"/>
		<rect x="150" y="9" width="78" height="136" fill="none" stroke="#66bd63" stroke-width="2" opacity="1"/>
		<line x1="150" y1="34" x2="228" y2="34" stroke="#66bd63" stroke-width="1"/>
	</g>
	<text x="167" y="26.75" fill="#000000" font-family="Verdana" font-size="12">CLIENT</text>
	<text x="155" y="51.8" fill="#000000" font-family="Verdana" font-size="12">courriel</text>
	<line x1="155" y1="54" x2="201" y2="54" stroke="#000000" stroke-width="1"/>
	<text x="155" y="68.8" fill="#000000" font-family="Verdana" font-size="12">nom</text>
	<text x="155" y="85.8" fill="#000000" font-family="Verdana" font-size="12">prenom</text>
	<text x="155" y="102.8" fill="#000000" font-family="Verdana" font-size="12">adresse</text>
	<text x="155" y="119.8" fill="#000000" font-family="Verdana" font-size="12">dateFinAbo</text>
	<text x="155" y="136.8" fill="#000000" font-family="Verdana" font-size="12">typeAbo</text>
</g>

<!-- Entity PROFIL -->
<g>
	<g>
		<rect x="145" y="245" width="88" height="25" fill="#a6d96a" stroke="none" stroke-width="0" opacity="1"/>
		<rect x="145" y="270" width="88" height="59" fill="#d9ef8b" stroke="none" stroke-width="0" opacity="1"/>
		<rect x="145" y="245" width="88" height="84" fill="none" stroke="#66bd63" stroke-width="2" opacity="1"/>
		<line x1="145" y1="270" x2="233" y2="270" stroke="#66bd63" stroke-width="1"/>
	</g>
	<text x="167" y="262.75" fill="#000000" font-family="Verdana" font-size="12">PROFIL</text>
	<text x="150" y="287.8" fill="#000000" font-family="Verdana" font-size="12">numéroProfil</text>
	<line x1="150" y1="290" x2="228" y2="290" stroke="#000000" stroke-width="1"/>
	<text x="150" y="304.8" fill="#000000" font-family="Verdana" font-size="12">nom</text>
	<text x="150" y="321.8" fill="#000000" font-family="Verdana" font-size="12">icon</text>
</g>

<!-- Entity LABEL -->
<g>
	<g>
		<rect x="11" y="454" width="90" height="25" fill="#a6d96a" stroke="none" stroke-width="0" opacity="1"/>
		<rect x="11" y="479" width="90" height="43" fill="#d9ef8b" stroke="none" stroke-width="0" opacity="1"/>
		<rect x="11" y="454" width="90" height="68" fill="none" stroke="#66bd63" stroke-width="2" opacity="1"/>
		<line x1="11" y1="479" x2="101" y2="479" stroke="#66bd63" stroke-width="1"/>
	</g>
	<text x="37" y="471.75" fill="#000000" font-family="Verdana" font-size="12">LABEL</text>
	<text x="16" y="496.8" fill="#000000" font-family="Verdana" font-size="12">numeroLabel</text>
	<line x1="16" y1="499" x2="95" y2="499" stroke="#000000" stroke-width="1"/>
	<text x="16" y="513.8" fill="#000000" font-family="Verdana" font-size="12">titre</text>
</g>

<!-- Entity VIDEO -->
<g>
	<g>
		<rect x="133" y="429" width="112" height="25" fill="#a6d96a" stroke="none" stroke-width="0" opacity="1"/>
		<rect x="133" y="454" width="112" height="93" fill="#d9ef8b" stroke="none" stroke-width="0" opacity="1"/>
		<rect x="133" y="429" width="112" height="118" fill="none" stroke="#66bd63" stroke-width="2" opacity="1"/>
		<line x1="133" y1="454" x2="245" y2="454" stroke="#66bd63" stroke-width="1"/>
	</g>
	<text x="169" y="446.75" fill="#000000" font-family="Verdana" font-size="12">VIDEO</text>
	<text x="138" y="471.8" fill="#000000" font-family="Verdana" font-size="12">numéroVideo</text>
	<line x1="138" y1="474" x2="219" y2="474" stroke="#000000" stroke-width="1"/>
	<text x="138" y="488.8" fill="#000000" font-family="Verdana" font-size="12">titre</text>
	<text x="138" y="505.8" fill="#000000" font-family="Verdana" font-size="12">durée</text>
	<text x="138" y="522.8" fill="#000000" font-family="Verdana" font-size="12">annéeProduction</text>
	<text x="138" y="539.8" fill="#000000" font-family="Verdana" font-size="12">main_image</text>
</g>

<!-- Entity PERSONNE -->
<g>
	<g>
		<rect x="377" y="446" width="114" height="25" fill="#a6d96a" stroke="none" stroke-width="0" opacity="1"/>
		<rect x="377" y="471" width="114" height="59" fill="#d9ef8b" stroke="none" stroke-width="0" opacity="1"/>
		<rect x="377" y="446" width="114" height="84" fill="none" stroke="#66bd63" stroke-width="2" opacity="1"/>
		<line x1="377" y1="471" x2="491" y2="471" stroke="#66bd63" stroke-width="1"/>
	</g>
	<text x="401" y="463.75" fill="#000000" font-family="Verdana" font-size="12">PERSONNE</text>
	<text x="382" y="488.8" fill="#000000" font-family="Verdana" font-size="12">numéroPersonne</text>
	<line x1="382" y1="491" x2="485" y2="491" stroke="#000000" stroke-width="1"/>
	<text x="382" y="505.8" fill="#000000" font-family="Verdana" font-size="12">nom</text>
	<text x="382" y="522.8" fill="#000000" font-family="Verdana" font-size="12">prénom</text>
</g>

<!-- Entity GENRE -->
<g>
	<g>
		<rect x="9" y="682" width="94" height="25" fill="#a6d96a" stroke="none" stroke-width="0" opacity="1"/>
		<rect x="9" y="707" width="94" height="43" fill="#d9ef8b" stroke="none" stroke-width="0" opacity="1"/>
		<rect x="9" y="682" width="94" height="68" fill="none" stroke="#66bd63" stroke-width="2" opacity="1"/>
		<line x1="9" y1="707" x2="103" y2="707" stroke="#66bd63" stroke-width="1"/>
	</g>
	<text x="35" y="699.75" fill="#000000" font-family="Verdana" font-size="12">GENRE</text>
	<text x="14" y="724.8" fill="#000000" font-family="Verdana" font-size="12">numéroGenre</text>
	<line x1="14" y1="727" x2="98" y2="727" stroke="#000000" stroke-width="1"/>
	<text x="14" y="741.8" fill="#000000" font-family="Verdana" font-size="12">nom</text>
</g>

<!-- Entity SERIE -->
<g>
	<g>
		<rect x="145" y="682" width="88" height="25" fill="#a6d96a" stroke="none" stroke-width="0" opacity="1"/>
		<rect x="145" y="707" width="88" height="43" fill="#d9ef8b" stroke="none" stroke-width="0" opacity="1"/>
		<rect x="145" y="682" width="88" height="68" fill="none" stroke="#66bd63" stroke-width="2" opacity="1"/>
		<line x1="145" y1="707" x2="233" y2="707" stroke="#66bd63" stroke-width="1"/>
	</g>
	<text x="170" y="699.75" fill="#000000" font-family="Verdana" font-size="12">SERIE</text>
	<text x="150" y="724.8" fill="#000000" font-family="Verdana" font-size="12">numéroSérie</text>
	<line x1="150" y1="727" x2="228" y2="727" stroke="#000000" stroke-width="1"/>
	<text x="150" y="741.8" fill="#000000" font-family="Verdana" font-size="12">titre</text>
</g>

<!-- Entity ROLE -->
<g>
	<g>
		<rect x="269" y="665" width="84" height="25" fill="#a6d96a" stroke="none" stroke-width="0" opacity="1"/>
		<rect x="269" y="690" width="84" height="77" fill="#d9ef8b" stroke="none" stroke-width="0" opacity="1"/>
		<rect x="269" y="665" width="84" height="102" fill="none" stroke="#66bd63" stroke-width="2" opacity="1"/>
		<line x1="269" y1="690" x2="353" y2="690" stroke="#66bd63" stroke-width="1"/>
	</g>
	<text x="295" y="682.75" fill="#000000" font-family="Verdana" font-size="12">ROLE</text>
	<text x="274" y="707.8" fill="#000000" font-family="Verdana" font-size="12">numéroRole</text>
	<line x1="274" y1="710" x2="347" y2="710" stroke="#000000" stroke-width="1"/>
	<text x="274" y="724.8" fill="#000000" font-family="Verdana" font-size="12">nom</text>
	<text x="274" y="741.8" fill="#000000" font-family="Verdana" font-size="12">prenom</text>
	<text x="274" y="758.8" fill="#000000" font-family="Verdana" font-size="12">image</text>
</g>
</svg>