<?xml version="1.0" encoding="utf-8"?>
<!-- Generated by Mocodo 4.3.2 -->
<svg width="876" height="819" viewBox="0 0 876 819" xmlns="http://www.w3.org/2000/svg">
<rect x="0" y="0" width="876" height="819" fill="#f7f7f7" stroke="none" stroke-width="0"/>

<!-- Association POSSEDE -->
<g>
	<line x1="384" y1="77" x2="384" y2="195" stroke="#7fbc41" stroke-width="2"/>
	<line x1="384" y1="279" x2="384" y2="195" stroke="#7fbc41" stroke-width="2"/>
	<g>
		<path d="M407 170 a14 14 90 0 1 14 14 V195 h-74 V184 a14 14 90 0 1 14 -14" fill="#b8e186" stroke="#b8e186" stroke-width="0"/>
		<path d="M421 195 v11 a14 14 90 0 1 -14 14 H361 a14 14 90 0 1 -14 -14 V195 H74" fill="#e6f5d0" stroke="#e6f5d0" stroke-width="0"/>
		<rect x="347" y="170" width="74" height="50" fill="none" rx="14" stroke="#7fbc41" stroke-width="2"/>
		<line x1="347" y1="195" x2="421" y2="195" stroke="#7fbc41" stroke-width="1"/>
		<text x="355" y="187.75" fill="#000000" font-family="Verdana" font-size="12">POSSEDE</text>
	</g>
	<text x="389" y="162" fill="#c51b7d" font-family="Verdana" font-size="12">1,N</text>
	<text x="389" y="237" fill="#c51b7d" font-family="Verdana" font-size="12">1,1</text>
</g>

<!-- Association NOTE_FILM -->
<g>
	<line x1="384" y1="279" x2="229" y2="279" stroke="#7fbc41" stroke-width="2"/>
	<line x1="65" y1="540" x2="229" y2="279" stroke="#7fbc41" stroke-width="2"/>
	<g>
		<path d="M258 254 a14 14 90 0 1 14 14 V279 h-86 V268 a14 14 90 0 1 14 -14" fill="#b8e186" stroke="#b8e186" stroke-width="0"/>
		<path d="M272 279 v11 a14 14 90 0 1 -14 14 H200 a14 14 90 0 1 -14 -14 V279 H86" fill="#e6f5d0" stroke="#e6f5d0" stroke-width="0"/>
		<rect x="186" y="254" width="86" height="50" fill="none" rx="14" stroke="#7fbc41" stroke-width="2"/>
		<line x1="186" y1="279" x2="272" y2="279" stroke="#7fbc41" stroke-width="1"/>
		<text x="194" y="271.75" fill="#000000" font-family="Verdana" font-size="12">NOTE_FILM</text>
		<text x="193" y="296.8" fill="#000000" font-family="Verdana" font-size="12">note</text>
	</g>
	<text x="313" y="271" fill="#c51b7d" font-family="Verdana" font-size="12">0,N</text>
	<text x="74.89" y="481" fill="#c51b7d" font-family="Verdana" font-size="12">0,N</text>
</g>

<!-- Association NOTE_EPISODE -->
<g>
	<line x1="384" y1="279" x2="543" y2="279" stroke="#7fbc41" stroke-width="2"/>
	<line x1="699" y1="363" x2="543" y2="279" stroke="#7fbc41" stroke-width="2"/>
	<g>
		<path d="M584 254 a14 14 90 0 1 14 14 V279 h-110 V268 a14 14 90 0 1 14 -14" fill="#b8e186" stroke="#b8e186" stroke-width="0"/>
		<path d="M598 279 v11 a14 14 90 0 1 -14 14 H502 a14 14 90 0 1 -14 -14 V279 H110" fill="#e6f5d0" stroke="#e6f5d0" stroke-width="0"/>
		<rect x="488" y="254" width="110" height="50" fill="none" rx="14" stroke="#7fbc41" stroke-width="2"/>
		<line x1="488" y1="279" x2="598" y2="279" stroke="#7fbc41" stroke-width="1"/>
		<text x="495" y="271.75" fill="#000000" font-family="Verdana" font-size="12">NOTE_EPISODE</text>
		<text x="495" y="296.8" fill="#000000" font-family="Verdana" font-size="12">note</text>
	</g>
	<text x="433" y="271" fill="#c51b7d" font-family="Verdana" font-size="12">0,N</text>
	<text x="620" y="347.8" fill="#c51b7d" font-family="Verdana" font-size="12">0,N</text>
</g>

<!-- Association VISIONNE -->
<g>
	<line x1="384" y1="279" x2="229" y2="363" stroke="#7fbc41" stroke-width="2"/>
	<line x1="65" y1="540" x2="229" y2="363" stroke="#7fbc41" stroke-width="2"/>
	<g>
		<path d="M255 338 a14 14 90 0 1 14 14 V363 h-80 V352 a14 14 90 0 1 14 -14" fill="#b8e186" stroke="#b8e186" stroke-width="0"/>
		<path d="M269 363 v11 a14 14 90 0 1 -14 14 H203 a14 14 90 0 1 -14 -14 V363 H80" fill="#e6f5d0" stroke="#e6f5d0" stroke-width="0"/>
		<rect x="189" y="338" width="80" height="50" fill="none" rx="14" stroke="#7fbc41" stroke-width="2"/>
		<line x1="189" y1="363" x2="269" y2="363" stroke="#7fbc41" stroke-width="1"/>
		<text x="198" y="355.75" fill="#000000" font-family="Verdana" font-size="12">VISIONNE</text>
		<text x="196" y="380.8" fill="#000000" font-family="Verdana" font-size="12">timestamp</text>
	</g>
	<text x="313" y="299.07" fill="#c51b7d" font-family="Verdana" font-size="12">0,N</text>
	<text x="91.94" y="481" fill="#c51b7d" font-family="Verdana" font-size="12">0,N</text>
</g>

<!-- Association CREER_LABEL -->
<g>
	<line x1="384" y1="279" x2="384" y2="363" stroke="#7fbc41" stroke-width="2"/>
	<line x1="384" y1="447" x2="384" y2="363" stroke="#7fbc41" stroke-width="2"/>
	<g>
		<path d="M420 338 a14 14 90 0 1 14 14 V363 h-100 V352 a14 14 90 0 1 14 -14" fill="#b8e186" stroke="#b8e186" stroke-width="0"/>
		<path d="M434 363 v11 a14 14 90 0 1 -14 14 H348 a14 14 90 0 1 -14 -14 V363 H100" fill="#e6f5d0" stroke="#e6f5d0" stroke-width="0"/>
		<rect x="334" y="338" width="100" height="50" fill="none" rx="14" stroke="#7fbc41" stroke-width="2"/>
		<line x1="334" y1="363" x2="434" y2="363" stroke="#7fbc41" stroke-width="1"/>
		<text x="341" y="355.75" fill="#000000" font-family="Verdana" font-size="12">CREER_LABEL</text>
	</g>
	<text x="389" y="330" fill="#c51b7d" font-family="Verdana" font-size="12">0,N</text>
	<text x="389" y="405" fill="#c51b7d" font-family="Verdana" font-size="12">0,N</text>
</g>

<!-- Association REGARDE -->
<g>
	<line x1="384" y1="279" x2="543" y2="363" stroke="#7fbc41" stroke-width="2"/>
	<line x1="699" y1="363" x2="543" y2="363" stroke="#7fbc41" stroke-width="2"/>
	<g>
		<path d="M569 338 a14 14 90 0 1 14 14 V363 h-80 V352 a14 14 90 0 1 14 -14" fill="#b8e186" stroke="#b8e186" stroke-width="0"/>
		<path d="M583 363 v11 a14 14 90 0 1 -14 14 H517 a14 14 90 0 1 -14 -14 V363 H80" fill="#e6f5d0" stroke="#e6f5d0" stroke-width="0"/>
		<rect x="503" y="338" width="80" height="50" fill="none" rx="14" stroke="#7fbc41" stroke-width="2"/>
		<line x1="503" y1="363" x2="583" y2="363" stroke="#7fbc41" stroke-width="1"/>
		<text x="513" y="355.75" fill="#000000" font-family="Verdana" font-size="12">REGARDE</text>
		<text x="510" y="380.8" fill="#000000" font-family="Verdana" font-size="12">timestamp</text>
	</g>
	<text x="433" y="298.37" fill="#c51b7d" font-family="Verdana" font-size="12">0,N</text>
	<text x="620" y="380" fill="#c51b7d" font-family="Verdana" font-size="12">0,N</text>
</g>

<!-- Association LABEL_FILM -->
<g>
	<line x1="65" y1="540" x2="229" y2="447" stroke="#7fbc41" stroke-width="2"/>
	<line x1="384" y1="447" x2="229" y2="447" stroke="#7fbc41" stroke-width="2"/>
	<g>
		<path d="M260 422 a14 14 90 0 1 14 14 V447 h-90 V436 a14 14 90 0 1 14 -14" fill="#b8e186" stroke="#b8e186" stroke-width="0"/>
		<path d="M274 447 v11 a14 14 90 0 1 -14 14 H198 a14 14 90 0 1 -14 -14 V447 H90" fill="#e6f5d0" stroke="#e6f5d0" stroke-width="0"/>
		<rect x="184" y="422" width="90" height="50" fill="none" rx="14" stroke="#7fbc41" stroke-width="2"/>
		<line x1="184" y1="447" x2="274" y2="447" stroke="#7fbc41" stroke-width="1"/>
		<text x="192" y="439.75" fill="#000000" font-family="Verdana" font-size="12">LABEL_FILM</text>
	</g>
	<text x="126" y="520.84" fill="#c51b7d" font-family="Verdana" font-size="12">0,N</text>
	<text x="312" y="464" fill="#c51b7d" font-family="Verdana" font-size="12">0,N</text>
</g>

<!-- Association LABEL_EPISODE -->
<g>
	<line x1="699" y1="363" x2="543" y2="447" stroke="#7fbc41" stroke-width="2"/>
	<line x1="384" y1="447" x2="543" y2="447" stroke="#7fbc41" stroke-width="2"/>
	<g>
		<path d="M586 422 a14 14 90 0 1 14 14 V447 h-114 V436 a14 14 90 0 1 14 -14" fill="#b8e186" stroke="#b8e186" stroke-width="0"/>
		<path d="M600 447 v11 a14 14 90 0 1 -14 14 H500 a14 14 90 0 1 -14 -14 V447 H114" fill="#e6f5d0" stroke="#e6f5d0" stroke-width="0"/>
		<rect x="486" y="422" width="114" height="50" fill="none" rx="14" stroke="#7fbc41" stroke-width="2"/>
		<line x1="486" y1="447" x2="600" y2="447" stroke="#7fbc41" stroke-width="1"/>
		<text x="493" y="439.75" fill="#000000" font-family="Verdana" font-size="12">LABEL_EPISODE</text>
	</g>
	<text x="620" y="387.2" fill="#c51b7d" font-family="Verdana" font-size="12">0,N</text>
	<text x="434" y="464" fill="#c51b7d" font-family="Verdana" font-size="12">0,N</text>
</g>

<!-- Association A_POUR_GENRE_FILM -->
<g>
	<line x1="384" y1="540" x2="229" y2="540" stroke="#7fbc41" stroke-width="2"/>
	<line x1="65" y1="540" x2="229" y2="540" stroke="#7fbc41" stroke-width="2"/>
	<g>
		<path d="M291 515 a14 14 90 0 1 14 14 V540 h-152 V529 a14 14 90 0 1 14 -14" fill="#b8e186" stroke="#b8e186" stroke-width="0"/>
		<path d="M305 540 v11 a14 14 90 0 1 -14 14 H167 a14 14 90 0 1 -14 -14 V540 H152" fill="#e6f5d0" stroke="#e6f5d0" stroke-width="0"/>
		<rect x="153" y="515" width="152" height="50" fill="none" rx="14" stroke="#7fbc41" stroke-width="2"/>
		<line x1="153" y1="540" x2="305" y2="540" stroke="#7fbc41" stroke-width="1"/>
		<text x="161" y="532.75" fill="#000000" font-family="Verdana" font-size="12">A_POUR_GENRE_FILM</text>
	</g>
	<text x="310" y="557" fill="#c51b7d" font-family="Verdana" font-size="12">0,N</text>
	<text x="126" y="557" fill="#c51b7d" font-family="Verdana" font-size="12">1,N</text>
</g>

<!-- Association A_POUR_GENRE_SERIE -->
<g>
	<line x1="384" y1="540" x2="543" y2="540" stroke="#7fbc41" stroke-width="2"/>
	<line x1="699" y1="540" x2="543" y2="540" stroke="#7fbc41" stroke-width="2"/>
	<g>
		<path d="M609 515 a14 14 90 0 1 14 14 V540 h-160 V529 a14 14 90 0 1 14 -14" fill="#b8e186" stroke="#b8e186" stroke-width="0"/>
		<path d="M623 540 v11 a14 14 90 0 1 -14 14 H477 a14 14 90 0 1 -14 -14 V540 H160" fill="#e6f5d0" stroke="#e6f5d0" stroke-width="0"/>
		<rect x="463" y="515" width="160" height="50" fill="none" rx="14" stroke="#7fbc41" stroke-width="2"/>
		<line x1="463" y1="540" x2="623" y2="540" stroke="#7fbc41" stroke-width="1"/>
		<text x="471" y="532.75" fill="#000000" font-family="Verdana" font-size="12">A_POUR_GENRE_SERIE</text>
	</g>
	<text x="436" y="557" fill="#c51b7d" font-family="Verdana" font-size="12">0,N</text>
	<text x="628" y="532" fill="#c51b7d" font-family="Verdana" font-size="12">1,N</text>
</g>

<!-- Association APPARTIENT -->
<g>
	<line x1="699" y1="363" x2="821" y2="540" stroke="#7fbc41" stroke-width="2"/>
	<line x1="699" y1="540" x2="821" y2="540" stroke="#7fbc41" stroke-width="2"/>
	<g>
		<path d="M853 515 a14 14 90 0 1 14 14 V540 h-92 V529 a14 14 90 0 1 14 -14" fill="#b8e186" stroke="#b8e186" stroke-width="0"/>
		<path d="M867 540 v11 a14 14 90 0 1 -14 14 H789 a14 14 90 0 1 -14 -14 V540 H92" fill="#e6f5d0" stroke="#e6f5d0" stroke-width="0"/>
		<rect x="775" y="515" width="92" height="50" fill="none" rx="14" stroke="#7fbc41" stroke-width="2"/>
		<line x1="775" y1="540" x2="867" y2="540" stroke="#7fbc41" stroke-width="1"/>
		<text x="783" y="532.75" fill="#000000" font-family="Verdana" font-size="12">APPARTIENT</text>
	</g>
	<text x="718.93" y="439" fill="#c51b7d" font-family="Verdana" font-size="12">1,1</text>
	<text x="748" y="557" fill="#c51b7d" font-family="Verdana" font-size="12">1,N</text>
</g>

<!-- Association JOUE_DANS_FILM -->
<g>
	<line x1="384" y1="759" x2="229" y2="641" stroke="#7fbc41" stroke-width="2"/>
	<line x1="65" y1="540" x2="229" y2="641" stroke="#7fbc41" stroke-width="2"/>
	<line x1="384" y1="641" x2="229" y2="641" stroke="#7fbc41" stroke-width="2"/>
	<g>
		<path d="M278 616 a14 14 90 0 1 14 14 V641 h-126 V630 a14 14 90 0 1 14 -14" fill="#b8e186" stroke="#b8e186" stroke-width="0"/>
		<path d="M292 641 v11 a14 14 90 0 1 -14 14 H180 a14 14 90 0 1 -14 -14 V641 H126" fill="#e6f5d0" stroke="#e6f5d0" stroke-width="0"/>
		<rect x="166" y="616" width="126" height="50" fill="none" rx="14" stroke="#7fbc41" stroke-width="2"/>
		<line x1="166" y1="641" x2="292" y2="641" stroke="#7fbc41" stroke-width="1"/>
		<text x="174" y="633.75" fill="#000000" font-family="Verdana" font-size="12">JOUE_DANS_FILM</text>
	</g>
	<text x="315" y="738.3" fill="#c51b7d" font-family="Verdana" font-size="12">1,N</text>
	<text x="126" y="571.25" fill="#c51b7d" font-family="Verdana" font-size="12">0,N</text>
	<text x="300" y="658" fill="#c51b7d" font-family="Verdana" font-size="12">0,N</text>
</g>

<!-- Association JOUE_DANS_SERIE -->
<g>
	<line x1="384" y1="759" x2="543" y2="641" stroke="#7fbc41" stroke-width="2"/>
	<line x1="699" y1="540" x2="543" y2="641" stroke="#7fbc41" stroke-width="2"/>
	<line x1="384" y1="641" x2="543" y2="641" stroke="#7fbc41" stroke-width="2"/>
	<g>
		<path d="M596 616 a14 14 90 0 1 14 14 V641 h-134 V630 a14 14 90 0 1 14 -14" fill="#b8e186" stroke="#b8e186" stroke-width="0"/>
		<path d="M610 641 v11 a14 14 90 0 1 -14 14 H490 a14 14 90 0 1 -14 -14 V641 H134" fill="#e6f5d0" stroke="#e6f5d0" stroke-width="0"/>
		<rect x="476" y="616" width="134" height="50" fill="none" rx="14" stroke="#7fbc41" stroke-width="2"/>
		<line x1="476" y1="641" x2="610" y2="641" stroke="#7fbc41" stroke-width="1"/>
		<text x="484" y="633.75" fill="#000000" font-family="Verdana" font-size="12">JOUE_DANS_SERIE</text>
	</g>
	<text x="431" y="739.22" fill="#c51b7d" font-family="Verdana" font-size="12">1,N</text>
	<text x="628" y="565.47" fill="#c51b7d" font-family="Verdana" font-size="12">0,N</text>
	<text x="446" y="658" fill="#c51b7d" font-family="Verdana" font-size="12">0,N</text>
</g>

<!-- Entity CLIENT -->
<g>
	<g>
		<rect x="345" y="9" width="78" height="25" fill="#f1b6da" stroke="none" stroke-width="0" opacity="1"/>
		<rect x="345" y="34" width="78" height="111" fill="#fde0ef" stroke="none" stroke-width="0" opacity="1"/>
		<rect x="345" y="9" width="78" height="136" fill="none" stroke="#de77ae" stroke-width="2" opacity="1"/>
		<line x1="345" y1="34" x2="423" y2="34" stroke="#de77ae" stroke-width="1"/>
	</g>
	<text x="362" y="26.75" fill="#000000" font-family="Verdana" font-size="12">CLIENT</text>
	<text x="350" y="51.8" fill="#000000" font-family="Verdana" font-size="12">courriel</text>
	<line x1="350" y1="54" x2="396" y2="54" stroke="#000000" stroke-width="1"/>
	<text x="350" y="68.8" fill="#000000" font-family="Verdana" font-size="12">nom</text>
	<text x="350" y="85.8" fill="#000000" font-family="Verdana" font-size="12">prenom</text>
	<text x="350" y="102.8" fill="#000000" font-family="Verdana" font-size="12">adresse</text>
	<text x="350" y="119.8" fill="#000000" font-family="Verdana" font-size="12">dateFinAbo</text>
	<text x="350" y="136.8" fill="#000000" font-family="Verdana" font-size="12">typeAbo</text>
</g>

<!-- Entity PROFIL -->
<g>
	<g>
		<rect x="340" y="245" width="88" height="25" fill="#f1b6da" stroke="none" stroke-width="0" opacity="1"/>
		<rect x="340" y="270" width="88" height="43" fill="#fde0ef" stroke="none" stroke-width="0" opacity="1"/>
		<rect x="340" y="245" width="88" height="68" fill="none" stroke="#de77ae" stroke-width="2" opacity="1"/>
		<line x1="340" y1="270" x2="428" y2="270" stroke="#de77ae" stroke-width="1"/>
	</g>
	<text x="362" y="262.75" fill="#000000" font-family="Verdana" font-size="12">PROFIL</text>
	<text x="345" y="287.8" fill="#000000" font-family="Verdana" font-size="12">numéroProfil</text>
	<line x1="345" y1="290" x2="423" y2="290" stroke="#000000" stroke-width="1"/>
	<text x="345" y="304.8" fill="#000000" font-family="Verdana" font-size="12">nom</text>
</g>

<!-- Entity EPISODE -->
<g>
	<g>
		<rect x="647" y="304" width="104" height="25" fill="#f1b6da" stroke="none" stroke-width="0" opacity="1"/>
		<rect x="647" y="329" width="104" height="93" fill="#fde0ef" stroke="none" stroke-width="0" opacity="1"/>
		<rect x="647" y="304" width="104" height="118" fill="none" stroke="#de77ae" stroke-width="2" opacity="1"/>
		<line x1="647" y1="329" x2="751" y2="329" stroke="#de77ae" stroke-width="1"/>
	</g>
	<text x="672" y="321.75" fill="#000000" font-family="Verdana" font-size="12">EPISODE</text>
	<text x="652" y="346.8" fill="#000000" font-family="Verdana" font-size="12">numéroEpisode</text>
	<line x1="652" y1="349" x2="746" y2="349" stroke="#000000" stroke-width="1"/>
	<text x="652" y="363.8" fill="#000000" font-family="Verdana" font-size="12">titre</text>
	<text x="652" y="380.8" fill="#000000" font-family="Verdana" font-size="12">réalisateur</text>
	<text x="652" y="397.8" fill="#000000" font-family="Verdana" font-size="12">durée</text>
	<text x="652" y="414.8" fill="#000000" font-family="Verdana" font-size="12">saison</text>
</g>

<!-- Entity LABEL -->
<g>
	<g>
		<rect x="339" y="413" width="90" height="25" fill="#f1b6da" stroke="none" stroke-width="0" opacity="1"/>
		<rect x="339" y="438" width="90" height="43" fill="#fde0ef" stroke="none" stroke-width="0" opacity="1"/>
		<rect x="339" y="413" width="90" height="68" fill="none" stroke="#de77ae" stroke-width="2" opacity="1"/>
		<line x1="339" y1="438" x2="429" y2="438" stroke="#de77ae" stroke-width="1"/>
	</g>
	<text x="365" y="430.75" fill="#000000" font-family="Verdana" font-size="12">LABEL</text>
	<text x="344" y="455.8" fill="#000000" font-family="Verdana" font-size="12">numeroLabel</text>
	<line x1="344" y1="458" x2="423" y2="458" stroke="#000000" stroke-width="1"/>
	<text x="344" y="472.8" fill="#000000" font-family="Verdana" font-size="12">titre</text>
</g>

<!-- Entity FILM -->
<g>
	<g>
		<rect x="9" y="489" width="112" height="25" fill="#f1b6da" stroke="none" stroke-width="0" opacity="1"/>
		<rect x="9" y="514" width="112" height="77" fill="#fde0ef" stroke="none" stroke-width="0" opacity="1"/>
		<rect x="9" y="489" width="112" height="102" fill="none" stroke="#de77ae" stroke-width="2" opacity="1"/>
		<line x1="9" y1="514" x2="121" y2="514" stroke="#de77ae" stroke-width="1"/>
	</g>
	<text x="50" y="506.75" fill="#000000" font-family="Verdana" font-size="12">FILM</text>
	<text x="14" y="531.8" fill="#000000" font-family="Verdana" font-size="12">numéroFilm</text>
	<line x1="14" y1="534" x2="87" y2="534" stroke="#000000" stroke-width="1"/>
	<text x="14" y="548.8" fill="#000000" font-family="Verdana" font-size="12">titre</text>
	<text x="14" y="565.8" fill="#000000" font-family="Verdana" font-size="12">annéeProduction</text>
	<text x="14" y="582.8" fill="#000000" font-family="Verdana" font-size="12">durée</text>
</g>

<!-- Entity GENRE -->
<g>
	<g>
		<rect x="337" y="506" width="94" height="25" fill="#f1b6da" stroke="none" stroke-width="0" opacity="1"/>
		<rect x="337" y="531" width="94" height="43" fill="#fde0ef" stroke="none" stroke-width="0" opacity="1"/>
		<rect x="337" y="506" width="94" height="68" fill="none" stroke="#de77ae" stroke-width="2" opacity="1"/>
		<line x1="337" y1="531" x2="431" y2="531" stroke="#de77ae" stroke-width="1"/>
	</g>
	<text x="363" y="523.75" fill="#000000" font-family="Verdana" font-size="12">GENRE</text>
	<text x="342" y="548.8" fill="#000000" font-family="Verdana" font-size="12">numéroGenre</text>
	<line x1="342" y1="551" x2="426" y2="551" stroke="#000000" stroke-width="1"/>
	<text x="342" y="565.8" fill="#000000" font-family="Verdana" font-size="12">nom</text>
</g>

<!-- Entity SERIE -->
<g>
	<g>
		<rect x="655" y="506" width="88" height="25" fill="#f1b6da" stroke="none" stroke-width="0" opacity="1"/>
		<rect x="655" y="531" width="88" height="43" fill="#fde0ef" stroke="none" stroke-width="0" opacity="1"/>
		<rect x="655" y="506" width="88" height="68" fill="none" stroke="#de77ae" stroke-width="2" opacity="1"/>
		<line x1="655" y1="531" x2="743" y2="531" stroke="#de77ae" stroke-width="1"/>
	</g>
	<text x="680" y="523.75" fill="#000000" font-family="Verdana" font-size="12">SERIE</text>
	<text x="660" y="548.8" fill="#000000" font-family="Verdana" font-size="12">numéroSérie</text>
	<line x1="660" y1="551" x2="738" y2="551" stroke="#000000" stroke-width="1"/>
	<text x="660" y="565.8" fill="#000000" font-family="Verdana" font-size="12">titre</text>
</g>

<!-- Entity PERSONNE -->
<g>
	<g>
		<rect x="327" y="599" width="114" height="25" fill="#f1b6da" stroke="none" stroke-width="0" opacity="1"/>
		<rect x="327" y="624" width="114" height="59" fill="#fde0ef" stroke="none" stroke-width="0" opacity="1"/>
		<rect x="327" y="599" width="114" height="84" fill="none" stroke="#de77ae" stroke-width="2" opacity="1"/>
		<line x1="327" y1="624" x2="441" y2="624" stroke="#de77ae" stroke-width="1"/>
	</g>
	<text x="351" y="616.75" fill="#000000" font-family="Verdana" font-size="12">PERSONNE</text>
	<text x="332" y="641.8" fill="#000000" font-family="Verdana" font-size="12">numéroPersonne</text>
	<line x1="332" y1="644" x2="435" y2="644" stroke="#000000" stroke-width="1"/>
	<text x="332" y="658.8" fill="#000000" font-family="Verdana" font-size="12">nom</text>
	<text x="332" y="675.8" fill="#000000" font-family="Verdana" font-size="12">prénom</text>
</g>

<!-- Entity ROLE -->
<g>
	<g>
		<rect x="342" y="708" width="84" height="25" fill="#f1b6da" stroke="none" stroke-width="0" opacity="1"/>
		<rect x="342" y="733" width="84" height="77" fill="#fde0ef" stroke="none" stroke-width="0" opacity="1"/>
		<rect x="342" y="708" width="84" height="102" fill="none" stroke="#de77ae" stroke-width="2" opacity="1"/>
		<line x1="342" y1="733" x2="426" y2="733" stroke="#de77ae" stroke-width="1"/>
	</g>
	<text x="368" y="725.75" fill="#000000" font-family="Verdana" font-size="12">ROLE</text>
	<text x="347" y="750.8" fill="#000000" font-family="Verdana" font-size="12">numéroRole</text>
	<line x1="347" y1="753" x2="420" y2="753" stroke="#000000" stroke-width="1"/>
	<text x="347" y="767.8" fill="#000000" font-family="Verdana" font-size="12">nom</text>
	<text x="347" y="784.8" fill="#000000" font-family="Verdana" font-size="12">prenom</text>
	<text x="347" y="801.8" fill="#000000" font-family="Verdana" font-size="12">image</text>
</g>
</svg>